<svg version="1" xmlns="http://www.w3.org/2000/svg" width="1333.333" height="1333.333" viewBox="0 0 1000.000000 1000.000000"><path d="M865.8 112.5c-.2.2-2.7.6-5.5 1-2.9.3-6.6 1-8.3 1.5-1.6.5-3 .7-3 .5 0-.3-1.2 0-2.7.6-1.6.6-3.7 1.2-4.8 1.5-4.1.7-25.5 10.5-25.5 11.6 0 .5-.5.8-1.1.8-2.2 0-14.5 9.6-22.5 17.5-15.3 15.1-28.6 38.2-31.9 55.4-.2.9-.7 3.4-1.3 5.6-.5 2.2-1 4.7-1 5.5 0 .8-.3 3.1-.6 5-2.1 10.6-.5 30.3 3.6 46 2 7.9 2.8 10 7.2 19 1.4 3 2.6 6 2.6 6.6 0 .6-4.3 5.1-9.6 10S749.1 312 745.9 315c-8.1 7.6-13.9 12.9-25.9 24-5.7 5.2-11.5 10.6-13 12-1.5 1.4-6.8 6.3-11.9 11-5.1 4.7-11.4 10.5-14.1 13-4.6 4.4-20.4 19-26.5 24.5-1.6 1.6-6.2 5.8-10.1 9.4-3.9 3.6-11 10.2-15.8 14.6-4.8 4.4-11.9 11-15.8 14.6l-7.1 6.6-7.1-4.6c-3.9-2.6-10.7-6.4-15.1-8.5-4.4-2.1-8.8-4.2-9.7-4.7-1-.5-2.2-.9-2.7-.9s-2.2-.5-3.8-1.2c-3.8-1.5-3.8-1.5-11.8-3.3-11.4-2.7-11.9-2.7-14.7-2.8-1.6 0-2.9-.3-2.9-.6-.4-1.9-.3-70.4.1-71 .3-.4 3.2-2 6.5-3.6 11.8-5.6 23.5-20.6 27.4-35 1.4-5 1.4-16.8.1-21.5-.5-1.9-1-3.8-1-4.3 0-1.6-5.4-11.4-8.4-15.2-5.7-7.4-17-15.7-23.9-17.6-2.3-.7-4.9-1.5-5.7-1.7-.8-.3-5.5-.7-10.4-.8-7.8-.2-10.1.2-17 2.7-4.4 1.6-8.2 3.2-8.5 3.7-.3.4-2.4 1.9-4.6 3.4-11.9 8.1-20.4 23.2-21 37.4-.9 19.8 11.2 40.6 28.8 49.2l6.7 3.3-.2 35.6-.3 35.6-2.5.4c-5.8.8-7.8 1.2-14.3 2.7-6.9 1.6-25.8 8.3-26.7 9.5-.3.3-2.9 1.7-5.7 3-2.9 1.4-5.3 2.8-5.3 3.2 0 .3-1 .9-2.1 1.2-1.7.5-3.3-.5-6.8-4.2-4.7-5-30.5-32.1-37.6-39.6-3.8-4-20-21.2-41.5-43.8-5.2-5.5-11.2-11.8-13.2-13.9-2.1-2.1-3.8-4.1-3.8-4.4 0-.3 1.8-3.5 4-7.1 12.3-20.5 16.6-48.5 10.8-70.8-.6-2.2-1.1-4.5-1.3-5-2.5-10.9-13.2-29-22.9-38.7-5.6-5.8-12.4-11.8-13.1-11.8-.2 0-3.2-1.7-6.6-3.8-6.4-3.8-16.7-8.4-20.3-8.9-1.1-.2-2.5-.8-3.1-1.3-.7-.5-1.4-.8-1.7-.5-.2.3-1.9 0-3.7-.5-3.4-1-15.5-2.3-20.1-2.3-3.9.1-15.2 1.2-17.8 1.8-1.2.3-3 .7-4 .9-5.6 1.3-7.8 1.9-8.7 2.5-.5.3-1.2.6-1.5.7-5.2 1-18.2 8.4-27.1 15.5-8.5 6.7-21.9 22.5-21.9 25.8 0 .6-.4 1.1-.8 1.1-.9 0-8.1 16.2-8.4 19 0 .3-.4 1.5-.9 2.7-.5 1.3-1.1 4.4-1.5 7-.3 2.7-.8 5.1-1.1 5.6-.9 1.6-.4 23.6.7 27.7.6 2.3 1.2 5.2 1.4 6.4 1 9 9.5 26.9 17.4 36.8 6.6 8.3 16 16.9 22.3 20.4 1.9 1 3.6 2.2 3.9 2.5.3.4 3.3 2 6.7 3.7 14.2 6.9 28.6 10 43.9 9.7 10.7-.3 15.7-1 23.6-3.5l5.9-1.8 4.7 4.7c2.6 2.7 10.8 11.2 18.2 19.1 16.5 17.5 25.6 27.1 33.5 35.4 3.3 3.4 12.3 12.9 20 21.1 7.7 8.1 16.3 17.2 19 20 2.8 2.8 6.3 6.6 7.9 8.3l2.9 3.1-3.9 5.8c-2.1 3.2-3.6 5.8-3.4 5.8.3 0-.5 1.3-1.6 3-4.7 6.6-12 26.7-14.3 39-3 16.2-3.2 38.3-.4 51 1.4 6.5.9 8.5-2.2 10.3-1.6.9-3.2 2-3.5 2.3-.3.3-2.7 1.6-5.5 2.9-2.7 1.3-5.7 2.9-6.5 3.5-.8.7-4.6 2.9-8.5 5-3.8 2.1-13.2 7.3-20.8 11.6-7.5 4.4-14.2 7.9-14.7 7.9-.6 0-1 .4-1 .9s-.9 1.3-2.1 1.6c-2.1.7-25.6 14-27.6 15.7-.7.6-1.3.7-1.3.3 0-.4-.7-.2-1.5.5-.8.6-2.9 2-4.7 2.9-1.8 1-7.6 4.2-12.9 7.3-5.2 3-10.2 5.8-11 6.2-.8.4-2.3 1.2-3.4 1.9-1.8 1.1-10.4 6-19.5 11-13.2 7.3-51.9 29.2-53.6 30.3-1.8 1.1-2.4 1-4-.4-13.9-12.4-31.5-21.1-50.5-25-9.9-2.1-30.4-2.7-36.3-1.1-1.7.4-4.4 1-6.1 1.3-6 1-11.8 2.7-14.6 4.2-1.6.8-2.9 1.2-2.9.9 0-.7-18.2 8.8-22.1 11.7-17.8 12.6-32.1 31.6-39.2 51.8-5.8 16.7-6.6 23.2-5.7 49.5.1 2.6 3.6 17.2 5.4 22.1 1.2 3.5 6.8 15.3 10.1 21.2.7 1.3 2.1 3.3 3.1 4.5 1.1 1.2 3.1 3.8 4.5 5.7 12.4 16.5 36.2 31.8 57 36.6 1.3.3 4.2 1 6.4 1.5s11.2.8 20 .8c15.3-.1 25.8-1.4 30.2-3.7 1.1-.6 2.3-.9 2.6-.6.3.3 2.2-.3 4.4-1.4 2.1-1.1 4.1-2 4.6-2.1 2.6-.3 19.1-10 24.5-14.4 3.2-2.6 14.9-14.4 17.6-17.7 2.8-3.5 10.1-15.1 11.9-19 3.5-7.8 5.6-13 5.1-13-.2 0 0-.9.6-2.1.6-1.1 2-6.4 3-11.7 2.7-13.8 2.5-30.9-.5-43.7-1.8-7.7-1.9-7.3 1.8-9.2 2-1 10.7-5.8 19.4-10.7 17-9.6 24.7-14 35.1-19.8 3.7-2.1 7.8-4.4 9.2-5 1.4-.7 2.7-1.5 3-1.9.3-.4 3.2-2.1 6.5-3.8 3.3-1.7 6.7-3.5 7.5-4.1 3.9-2.4 19.1-11 19.6-11 .2 0 2.1-1 4.2-2.3 3.4-2.2 12.1-7 20.2-11.3 1.9-1.1 3.7-2.2 3.8-2.7.2-.4.7-.7 1.2-.7.4 0 5-2.4 10.1-5.3 10.1-5.7 12.9-7.3 34.4-19.3 7.7-4.3 14.2-8 14.5-8.4.3-.3 1.8-1.1 3.4-1.8 2.8-1.3 3.1-1.1 5.5 2 6 8 27.4 27.8 30 27.8.6 0 1.1.3 1.1.7 0 .5 2.2 2 4.9 3.5l4.9 2.8-7 16.2c-3.8 9-7.5 17.6-8.3 19.3-.7 1.6-2.1 4.9-3 7.2-1 2.6-2.4 4.3-3.4 4.3-10.4.3-17.7 1.7-22.6 4.3-1.1.6-2.2 1.1-2.5 1.2-1.6.1-10.2 6-14.1 9.7-10.4 9.8-15.2 21.1-15.1 35.3 0 5.5.6 10.6 1.6 13.2.8 2.4 1.3 4.3 1.1 4.3-.3 0 1.1 3 3.1 6.7 3.3 6.3 17.3 21.6 19.2 21.1.4-.1 2.1.6 3.9 1.5 8.1 4.3 21.2 5.6 31.6 3.2 6.2-1.4 13-3.7 13.7-4.6.3-.3 2-1.4 3.8-2.3 3.2-1.6 10.9-8.8 14.2-13.1 2.4-3.1 6.6-12.4 7.6-17 1.3-5.4 1-18.7-.6-24.7-1.8-6.8-5.4-15-8.2-18.3-.9-1.1-2.8-3.4-4.2-5-1.4-1.7-2.6-3.3-2.6-3.6 0-.5 7-17.2 9-21.4.8-1.7 3-7 3.5-8.5.1-.3.8-1.9 1.5-3.5.7-1.7 1.4-3.2 1.5-3.5.3-1.4 4.4-10 4.8-10 .2 0 2.6.6 5.3 1.4 2.7.8 6.5 1.7 8.4 2.1 1.9.3 4.9.8 6.5 1.1 4.3.8 36.8 1.3 38 .6 1-.6 1.5-.7 8-1.6 4-.5 8-1.3 8-1.6 0-.1.9-.3 2-.5 2.3-.4 4.3-1 6.5-1.7.8-.3 4.4-1.6 8-2.8 12.4-4.3 26.4-12.5 39.4-22.9 9.7-7.9 9.4-7.7 11.1-6.6 23 15.6 58.3 39.1 59.3 39.3.6.2 1.2.8 1.2 1.3s.6.9 1.4.9c.8 0 1.6.3 1.8.7.4 1.1 42.8 29.3 43.9 29.3.5 0 .9.4.9 1 0 .5.6 1 1.4 1 .8 0 1.6.3 1.8.7.2.5 4 3.3 8.5 6.3 6.6 4.4 8.1 5.9 7.7 7.5-3.5 14.2-1.1 35 5.9 52.4 3.1 7.7 10.4 20.1 11.9 20.1.4 0 .8.6.8 1.3 0 2.2 11.9 13 20.3 18.5 7.4 4.8 21.8 11.2 25.2 11.2.9 0 2.4.4 3.4.9 3.8 2.1 22.9 3.1 33.7 1.9 10.7-1.3 31.1-9.1 36.4-14 1-1 2.3-1.8 2.8-1.8 1.3 0 15.2-13.8 18.7-18.5 1.7-2.2 3.6-4.6 4.3-5.3.6-.7 1.2-2 1.2-2.8 0-.8.4-1.4.8-1.4.5 0 2.1-2.8 3.7-6.2 3.9-8.8 4.3-9.7 5.6-14.8 1.8-6.7 2.1-8.2 2.3-11.3 0-1.5.3-2.7.6-2.7 1.4 0-.1-22.6-2.1-30.5-2.3-8.9-9.4-25.8-12-28.6-.8-.8-2.3-2.7-3.3-4.3-2.4-3.8-6.3-8.2-10.6-12-1.9-1.7-4.4-4.1-5.7-5.3-1.3-1.2-2.3-2-2.3-1.7 0 .3-1.5-.6-3.2-1.9-7.5-5.7-24.2-12.6-34.7-14.3-9.9-1.7-27-1.2-35.6 1-1.1.3-4 1-6.4 1.6-6.5 1.6-16.6 6.6-25.4 12.7L779 697l-11-7.5c-6.1-4.1-11.5-7.5-11.9-7.5-.5 0-1.1-.3-1.3-.8-.1-.4-5.7-4.3-12.3-8.7-6.6-4.3-12.4-8.3-13-8.7-.5-.5-8-5.4-16.5-11s-15.7-10.5-16-10.8c-.3-.3-1.7-1.1-3.2-1.9-1.6-.8-2.8-1.8-2.8-2.3 0-.4-.4-.8-.9-.8-1.2 0-10.5-6.1-10.9-7.2-.2-.4-.9-.8-1.6-.8-.7 0-2.1-.8-3.2-1.8-1-1-5.3-3.9-9.4-6.5-4.2-2.6-8.8-5.8-10.3-7l-2.7-2.2 2.4-7c3.3-9.6 5.8-19.4 6.5-25.6.1-.4 2.2-.5 4.9-.3 22.8 1.4 55.2 3.2 60.3 3.3 2.1.1 2.9 1 4.7 5.4 2.7 6.6 8.7 15.9 9.5 15 .4-.3.7-.1.7.6s1 2.2 2.3 3.2c28.5 25 71.2 13.2 82.3-22.6 4-12.7 1.6-29.1-5.9-41-3.5-5.5-9.1-11.5-10.7-11.5-.5 0-1-.4-1-.9 0-1.3-14.1-8.1-17.7-8.6-1.5-.2-2.8-.5-2.8-.6 0-.1-3.7-.3-8.3-.4-7.5-.3-14.3.6-18.2 2.2-.8.3-2.4.8-3.4 1-1.1.2-2.6.9-3.4 1.5-1.5 1.3-4.7 3.2-7.2 4.4-3.5 1.7-10.2 10.3-15.6 19.9-1.2 2.2-.9 2.1-17.9 1-6-.4-14.1-.8-18-1-28.4-1.4-32.1-1.7-32.9-2.6-.2-.2-.7-2.7-1-5.4-.3-2.8-.8-6.1-1.1-7.5-.3-1.4-.8-3.9-1.1-5.5-1.7-9.5-7.1-24.7-12.5-35.1l-3.7-7.1 7.7-7c4.2-3.9 9-8.3 10.6-9.8 1.7-1.5 6-5.5 9.6-8.9 3.6-3.3 11.2-10.4 16.9-15.6 5.7-5.2 11.9-11 13.9-12.9 2-1.8 7.8-7.2 13-12 5.2-4.7 11-10.1 13-12 2-1.8 7.6-7 12.5-11.5 9.9-9.1 12.1-11.2 26.7-24.7 5.7-5.3 11.8-10.9 13.4-12.4 1.7-1.5 7.7-7 13.4-12.3 13-12.1 12.3-11.5 14.2-12.9 1.3-1.1 2.3-.8 5.8 1.7 2.2 1.7 4.1 2.7 4.1 2.4 0-.4.7-.1 1.5.6 2.9 2.4 16.5 8.5 23.5 10.5 13.8 4 23.6 5.3 38 5 12.7-.3 17-.6 23-2.1 1.4-.3 3.2-.7 4-.8.8-.1 4-1.1 7-2.1 3-1.1 5.7-2 6-2.1 11.1-3.1 30.4-15.3 41.5-26.2 6.8-6.6 13.5-14 13.5-14.8 0-.2 1.5-2.5 3.4-5.1 8.8-12.5 17-33.9 19.3-50.8 1-7.5.8-27.7-.3-34.5-3.5-20.2-11.1-38.2-23.2-54.5-3.8-5.1-16.3-18-21.6-22.3-11.8-9.5-31.8-19.7-44.8-22.8-11.6-2.8-17.2-3.5-29-3.8-7.5-.2-13.8-.2-14-.1zm25.2 53c.6.3 2.3.9 3.8 1.1 3.4.6 17.8 7.7 21.5 10.7 6.5 5.1 16.7 15.9 16.7 17.7 0 .6.5 1 1 1 .6 0 1 .5 1 1.1 0 .6.9 2.3 2 3.8 2.1 3.1 6.6 15.9 7.6 21.7.4 2.2.6 6.8.6 10.4-.1 21.5-8 38.4-24.9 53-6.5 5.7-20.7 12.3-28.9 13.5-1.6.2-4 .7-5.4 1-5.3 1.2-24.6.5-27.1-1.1-.5-.3-1.8-.7-2.9-.9-4.3-.8-14.8-6.1-20.2-10.2-6.1-4.6-13.7-12.8-15.9-17.2-.8-1.4-1.6-2.8-1.9-3.1-2-2-7.1-15-8.5-21.6-.4-1.6-.8-6.8-1.1-11.7-.4-7.6 0-11.9 2-21.3 1.4-6.8 9.7-20.5 16.5-27.4 9.9-10.2 25.2-18.5 37.5-20.4 2.2-.4 4.2-.8 4.4-1.1.7-.6 21 .3 22.2 1zm-608.5 70c8.1 2.3 14.7 7.3 22.5 17.1 4.5 5.6 7.9 18.2 7.4 27.3-1 17.3-15.4 33.8-33.6 38.5-13.3 3.4-29.4-1.2-39.7-11.4-9.4-9.2-14.5-26.7-11.7-40 1.1-4.9 6.1-15 9-18.1 7.2-7.7 17.3-13.4 25.9-14.5 2.3-.4 4.3-.8 4.5-.9.7-.7 11 .6 15.7 2zm246 45.1c12.1 4.4 16.6 20 8.8 30.3-2.7 3.5-11.3 8-14.8 7.6-12.3-1.2-18.7-7.6-19.1-19.2-.3-5.6 0-6.7 2.9-11 1.8-2.6 4.7-5.5 6.5-6.5 1.7-1 3.2-1.6 3.2-1.3 0 .2 1 0 2.3-.5 2.3-.9 6.8-.7 10.2.6zm10.1 194.2c20.6 4.3 42.3 19.7 54.3 38.7 3.7 5.8 7.8 13.8 8.7 17 4 13.5 4.6 17.4 4.6 27 0 9.9-1.6 21.3-3.4 24.8-.5 1-1.1 2.7-1.3 3.9-.6 2.8-6.4 14.5-9.9 19.8-4.4 6.6-15.2 17-23.1 22-3.7 2.5-7.1 4.5-7.4 4.5-.3 0-1.1.3-1.7.7-2.1 1.4-12 5-14.8 5.5-1.6.3-4.1.9-5.5 1.5-4.5 1.7-25.8 1.9-34.6.2-4.4-.8-8.9-1.9-10-2.3-1.1-.5-3.9-1.6-6.3-2.5-2.3-.9-6-2.7-8.2-4.1-2.2-1.4-4.2-2.5-4.5-2.5-2 0-17.3-15.2-21.9-21.8-7.7-11-12.8-23.9-15-38-3.3-20.6 1.1-40.6 12.7-57.6 4.6-6.9 17.7-20.1 20.7-21.1 1.1-.4 2-1 2-1.4 0-.5 4.5-3.1 10-6 5.5-2.8 10-4.8 10-4.6 0 .3 1 0 2.3-.7 7-3.8 30.1-5.4 42.3-3zm246.8 77c13.6 6.7 15 25.9 2.6 33.7-15.7 9.9-34-4.1-29.1-22.2 1.2-4.4 7-10.5 11.6-12.1 4.1-1.5 11.4-1.2 14.9.6zm62.1 176.5c10.3 3.2 20.6 10.8 22.1 16.4.3 1.3 1 2.3 1.4 2.3.4 0 1.5 2.8 2.5 6.2 1.7 5.9 2.2 14.2 1.2 19.8-.4 2.4-.7 3.3-3.3 9.6-1.5 4-7.9 11-12.4 13.9-10.2 6.3-21.7 7.7-32.4 4-15.5-5.4-25.5-18.8-25.8-34.5-.3-22.1 16.5-39.2 38.2-38.7 3 0 6.9.5 8.5 1zm-723.4 3.6c6.6 2.1 16.3 7.8 20.9 12.3 3.9 3.8 8.5 9.2 9.3 10.8.4.8 1.6 2.9 2.6 4.7 1.1 1.7 2.9 6.2 4.1 10 2.5 7.9 2.6 20.8.3 28.2-.8 2.5-1.6 5-1.7 5.6-1.4 5.2-7.4 14.2-13.2 19.8-2.6 2.6-5.1 4.7-5.5 4.7-.4 0-1.4.6-2.1 1.3-1.3 1.3-11.4 5.9-15.7 7.2-5.7 1.7-18.1 2.4-23.9 1.4-8.7-1.5-18.2-5.4-22.8-9.2-9.9-8.1-16.3-17.5-20.3-29.8-2.2-6.8-2.9-18-1.5-25.6 1.8-10.4 10-23.6 19.1-30.7 4.5-3.6 15.1-9.8 17.3-10.2.3 0 1.2-.3 2-.7 7-2.9 21.5-2.8 31.1.2zm311.1 26.9c1.5.6 3.9 2.1 5.3 3.4 13.3 11.5 4.9 34.3-12.6 34.1-13.6-.2-22.6-13-18.2-26 3.4-10 15.4-15.4 25.5-11.5z"/></svg>