<?xml version="1.0" standalone="no"?>
<!DOCTYPE svg PUBLIC "-//W3C//DTD SVG 20010904//EN"
 "http://www.w3.org/TR/2001/REC-SVG-20010904/DTD/svg10.dtd">
<svg version="1.0" xmlns="http://www.w3.org/2000/svg"
 width="16.000000pt" height="16.000000pt" viewBox="0 0 16.000000 16.000000"
 preserveAspectRatio="xMidYMid meet">
<metadata>
Created by potrace 1.11, written by Peter Selinger 2001-2013
</metadata>
<g transform="translate(0.000000,16.000000) scale(0.001600,-0.001600)"
fill="#000000" stroke="none">
<path d="M8658 8875 c-2 -2 -27 -6 -55 -10 -29 -3 -66 -10 -83 -15 -16 -5 -30
-7 -30 -5 0 3 -12 0 -27 -6 -16 -6 -37 -12 -48 -15 -41 -7 -255 -105 -255
-116 0 -5 -5 -8 -11 -8 -22 0 -145 -96 -225 -175 -153 -151 -286 -382 -319
-554 -2 -9 -7 -34 -13 -56 -5 -22 -10 -47 -10 -55 0 -8 -3 -31 -6 -50 -21
-106 -5 -303 36 -460 20 -79 28 -100 72 -190 14 -30 26 -60 26 -66 0 -6 -43
-51 -96 -100 -53 -49 -123 -114 -155 -144 -81 -76 -139 -129 -259 -240 -57
-52 -115 -106 -130 -120 -15 -14 -68 -63 -119 -110 -51 -47 -114 -105 -141
-130 -46 -44 -204 -190 -265 -245 -16 -16 -62 -58 -101 -94 -39 -36 -110 -102
-158 -146 -48 -44 -119 -110 -158 -146 l-71 -66 -71 46 c-39 26 -107 64 -151
85 -44 21 -88 42 -97 47 -10 5 -22 9 -27 9 -5 0 -22 5 -38 12 -38 15 -38 15
-118 33 -114 27 -119 27 -147 28 -16 0 -29 3 -29 6 -4 19 -3 704 1 710 3 4 32
20 65 36 118 56 235 206 274 350 14 50 14 168 1 215 -5 19 -10 38 -10 43 0 16
-54 114 -84 152 -57 74 -170 157 -239 176 -23 7 -49 15 -57 17 -8 3 -55 7
-104 8 -78 2 -101 -2 -170 -27 -44 -16 -82 -32 -85 -37 -3 -4 -24 -19 -46 -34
-119 -81 -204 -232 -210 -374 -9 -198 112 -406 288 -492 l67 -33 -2 -356 -3
-356 -25 -4 c-58 -8 -78 -12 -143 -27 -69 -16 -258 -83 -267 -95 -3 -3 -29
-17 -57 -30 -29 -14 -53 -28 -53 -32 0 -3 -10 -9 -21 -12 -17 -5 -33 5 -68 42
-47 50 -305 321 -376 396 -38 40 -200 212 -415 438 -52 55 -112 118 -132 139
-21 21 -38 41 -38 44 0 3 18 35 40 71 123 205 166 485 108 708 -6 22 -11 45
-13 50 -25 109 -132 290 -229 387 -56 58 -124 118 -131 118 -2 0 -32 17 -66
38 -64 38 -167 84 -203 89 -11 2 -25 8 -31 13 -7 5 -14 8 -17 5 -2 -3 -19 0
-37 5 -34 10 -155 23 -201 23 -39 -1 -152 -12 -178 -18 -12 -3 -30 -7 -40 -9
-56 -13 -78 -19 -87 -25 -5 -3 -12 -6 -15 -7 -52 -10 -182 -84 -271 -155 -85
-67 -219 -225 -219 -258 0 -6 -4 -11 -8 -11 -9 0 -81 -162 -84 -190 0 -3 -4
-15 -9 -27 -5 -13 -11 -44 -15 -70 -3 -27 -8 -51 -11 -56 -9 -16 -4 -236 7
-277 6 -23 12 -52 14 -64 10 -90 95 -269 174 -368 66 -83 160 -169 223 -204
19 -10 36 -22 39 -25 3 -4 33 -20 67 -37 142 -69 286 -100 439 -97 107 3 157
10 236 35 l59 18 47 -47 c26 -27 108 -112 182 -191 165 -175 256 -271 335
-354 33 -34 123 -129 200 -211 77 -81 163 -172 190 -200 28 -28 63 -66 79 -83
l29 -31 -39 -58 c-21 -32 -36 -58 -34 -58 3 0 -5 -13 -16 -30 -47 -66 -120
-267 -143 -390 -30 -162 -32 -383 -4 -510 14 -65 9 -85 -22 -103 -16 -9 -32
-20 -35 -23 -3 -3 -27 -16 -55 -29 -27 -13 -57 -29 -65 -35 -8 -7 -46 -29 -85
-50 -38 -21 -132 -73 -208 -116 -75 -44 -142 -79 -147 -79 -6 0 -10 -4 -10 -9
0 -5 -9 -13 -21 -16 -21 -7 -256 -140 -276 -157 -7 -6 -13 -7 -13 -3 0 4 -7 2
-15 -5 -8 -6 -29 -20 -47 -29 -18 -10 -76 -42 -129 -73 -52 -30 -102 -58 -110
-62 -8 -4 -23 -12 -34 -19 -18 -11 -104 -60 -195 -110 -132 -73 -519 -292
-536 -303 -18 -11 -24 -10 -40 4 -139 124 -315 211 -505 250 -99 21 -304 27
-363 11 -17 -4 -44 -10 -61 -13 -60 -10 -118 -27 -146 -42 -16 -8 -29 -12 -29
-9 0 7 -182 -88 -221 -117 -178 -126 -321 -316 -392 -518 -58 -167 -66 -232
-57 -495 1 -26 36 -172 54 -221 12 -35 68 -153 101 -212 7 -13 21 -33 31 -45
11 -12 31 -38 45 -57 124 -165 362 -318 570 -366 13 -3 42 -10 64 -15 22 -5
112 -8 200 -8 153 1 258 14 302 37 11 6 23 9 26 6 3 -3 22 3 44 14 21 11 41
20 46 21 26 3 191 100 245 144 32 26 149 144 176 177 28 35 101 151 119 190
35 78 56 130 51 130 -2 0 0 9 6 21 6 11 20 64 30 117 27 138 25 309 -5 437
-18 77 -19 73 18 92 20 10 107 58 194 107 170 96 247 140 351 198 37 21 78 44
92 50 14 7 27 15 30 19 3 4 32 21 65 38 33 17 67 35 75 41 39 24 191 110 196
110 2 0 21 10 42 23 34 22 121 70 202 113 19 11 37 22 38 27 2 4 7 7 12 7 4 0
50 24 101 53 101 57 129 73 344 193 77 43 142 80 145 84 3 3 18 11 34 18 28
13 31 11 55 -20 60 -80 274 -278 300 -278 6 0 11 -3 11 -7 0 -5 22 -20 49 -35
l49 -28 -70 -162 c-38 -90 -75 -176 -83 -193 -7 -16 -21 -49 -30 -72 -10 -26
-24 -43 -34 -43 -104 -3 -177 -17 -226 -43 -11 -6 -22 -11 -25 -12 -16 -1
-102 -60 -141 -97 -104 -98 -152 -211 -151 -353 0 -55 6 -106 16 -132 8 -24
13 -43 11 -43 -3 0 11 -30 31 -67 33 -63 173 -216 192 -211 4 1 21 -6 39 -15
81 -43 212 -56 316 -32 62 14 130 37 137 46 3 3 20 14 38 23 32 16 109 88 142
131 24 31 66 124 76 170 13 54 10 187 -6 247 -18 68 -54 150 -82 183 -9 11
-28 34 -42 50 -14 17 -26 33 -26 36 0 5 70 172 90 214 8 17 30 70 35 85 1 3 8
19 15 35 7 17 14 32 15 35 3 14 44 100 48 100 2 0 26 -6 53 -14 27 -8 65 -17
84 -21 19 -3 49 -8 65 -11 43 -8 368 -13 380 -6 10 6 15 7 80 16 40 5 80 13
80 16 0 1 9 3 20 5 23 4 43 10 65 17 8 3 44 16 80 28 124 43 264 125 394 229
97 79 94 77 111 66 230 -156 583 -391 593 -393 6 -2 12 -8 12 -13 0 -5 6 -9
14 -9 8 0 16 -3 18 -7 4 -11 428 -293 439 -293 5 0 9 -4 9 -10 0 -5 6 -10 14
-10 8 0 16 -3 18 -7 2 -5 40 -33 85 -63 66 -44 81 -59 77 -75 -35 -142 -11
-350 59 -524 31 -77 104 -201 119 -201 4 0 8 -6 8 -13 0 -22 119 -130 203
-185 74 -48 218 -112 252 -112 9 0 24 -4 34 -9 38 -21 229 -31 337 -19 107 13
311 91 364 140 10 10 23 18 28 18 13 0 152 138 187 185 17 22 36 46 43 53 6 7
12 20 12 28 0 8 4 14 8 14 5 0 21 28 37 62 39 88 43 97 56 148 18 67 21 82 23
113 0 15 3 27 6 27 14 0 -1 226 -21 305 -23 89 -94 258 -120 286 -8 8 -23 27
-33 43 -24 38 -63 82 -106 120 -19 17 -44 41 -57 53 -13 12 -23 20 -23 17 0
-3 -15 6 -32 19 -75 57 -242 126 -347 143 -99 17 -270 12 -356 -10 -11 -3 -40
-10 -64 -16 -65 -16 -166 -66 -254 -127 l-77 -53 -110 75 c-61 41 -115 75
-119 75 -5 0 -11 3 -13 8 -1 4 -57 43 -123 87 -66 43 -124 83 -130 87 -5 5
-80 54 -165 110 -85 56 -157 105 -160 108 -3 3 -17 11 -32 19 -16 8 -28 18
-28 23 0 4 -4 8 -9 8 -12 0 -105 61 -109 72 -2 4 -9 8 -16 8 -7 0 -21 8 -32
18 -10 10 -53 39 -94 65 -42 26 -88 58 -103 70 l-27 22 24 70 c33 96 58 194
65 256 1 4 22 5 49 3 228 -14 552 -32 603 -33 21 -1 29 -10 47 -54 27 -66 87
-159 95 -150 4 3 7 1 7 -6 0 -7 10 -22 23 -32 285 -250 712 -132 823 226 40
127 16 291 -59 410 -35 55 -91 115 -107 115 -5 0 -10 4 -10 9 0 13 -141 81
-177 86 -15 2 -28 5 -28 6 0 1 -37 3 -83 4 -75 3 -143 -6 -182 -22 -8 -3 -24
-8 -34 -10 -11 -2 -26 -9 -34 -15 -15 -13 -47 -32 -72 -44 -35 -17 -102 -103
-156 -199 -12 -22 -9 -21 -179 -10 -60 4 -141 8 -180 10 -284 14 -321 17 -329
26 -2 2 -7 27 -10 54 -3 28 -8 61 -11 75 -3 14 -8 39 -11 55 -17 95 -71 247
-125 351 l-37 71 77 70 c42 39 90 83 106 98 17 15 60 55 96 89 36 33 112 104
169 156 57 52 119 110 139 129 20 18 78 72 130 120 52 47 110 101 130 120 20
18 76 70 125 115 99 91 121 112 267 247 57 53 118 109 134 124 17 15 77 70
134 123 130 121 123 115 142 129 13 11 23 8 58 -17 22 -17 41 -27 41 -24 0 4
7 1 15 -6 29 -24 165 -85 235 -105 138 -40 236 -53 380 -50 127 3 170 6 230
21 14 3 32 7 40 8 8 1 40 11 70 21 30 11 57 20 60 21 111 31 304 153 415 262
68 66 135 140 135 148 0 2 15 25 34 51 88 125 170 339 193 508 10 75 8 277 -3
345 -35 202 -111 382 -232 545 -38 51 -163 180 -216 223 -118 95 -318 197
-448 228 -116 28 -172 35 -290 38 -75 2 -138 2 -140 1z m252 -530 c6 -3 23 -9
38 -11 34 -6 178 -77 215 -107 65 -51 167 -159 167 -177 0 -6 5 -10 10 -10 6
0 10 -5 10 -11 0 -6 9 -23 20 -38 21 -31 66 -159 76 -217 4 -22 6 -68 6 -104
-1 -215 -80 -384 -249 -530 -65 -57 -207 -123 -289 -135 -16 -2 -40 -7 -54
-10 -53 -12 -246 -5 -271 11 -5 3 -18 7 -29 9 -43 8 -148 61 -202 102 -61 46
-137 128 -159 172 -8 14 -16 28 -19 31 -20 20 -71 150 -85 216 -4 16 -8 68
-11 117 -4 76 0 119 20 213 14 68 97 205 165 274 99 102 252 185 375 204 22 4
42 8 44 11 7 6 210 -3 222 -10z m-6085 -700 c81 -23 147 -73 225 -171 45 -56
79 -182 74 -273 -10 -173 -154 -338 -336 -385 -133 -34 -294 12 -397 114 -94
92 -145 267 -117 400 11 49 61 150 90 181 72 77 173 134 259 145 23 4 43 8 45
9 7 7 110 -6 157 -20z m2460 -451 c121 -44 166 -200 88 -303 -27 -35 -113 -80
-148 -76 -123 12 -187 76 -191 192 -3 56 0 67 29 110 18 26 47 55 65 65 17 10
32 16 32 13 0 -2 10 0 23 5 23 9 68 7 102 -6z m101 -1942 c206 -43 423 -197
543 -387 37 -58 78 -138 87 -170 40 -135 46 -174 46 -270 0 -99 -16 -213 -34
-248 -5 -10 -11 -27 -13 -39 -6 -28 -64 -145 -99 -198 -44 -66 -152 -170 -231
-220 -37 -25 -71 -45 -74 -45 -3 0 -11 -3 -17 -7 -21 -14 -120 -50 -148 -55
-16 -3 -41 -9 -55 -15 -45 -17 -258 -19 -346 -2 -44 8 -89 19 -100 23 -11 5
-39 16 -63 25 -23 9 -60 27 -82 41 -22 14 -42 25 -45 25 -20 0 -173 152 -219
218 -77 110 -128 239 -150 380 -33 206 11 406 127 576 46 69 177 201 207 211
11 4 20 10 20 14 0 5 45 31 100 60 55 28 100 48 100 46 0 -3 10 0 23 7 70 38
301 54 423 30z m2468 -770 c136 -67 150 -259 26 -337 -157 -99 -340 41 -291
222 12 44 70 105 116 121 41 15 114 12 149 -6z m621 -1765 c103 -32 206 -108
221 -164 3 -13 10 -23 14 -23 4 0 15 -28 25 -62 17 -59 22 -142 12 -198 -4
-24 -7 -33 -33 -96 -15 -40 -79 -110 -124 -139 -102 -63 -217 -77 -324 -40
-155 54 -255 188 -258 345 -3 221 165 392 382 387 30 0 69 -5 85 -10z m-7234
-36 c66 -21 163 -78 209 -123 39 -38 85 -92 93 -108 4 -8 16 -29 26 -47 11
-17 29 -62 41 -100 25 -79 26 -208 3 -282 -8 -25 -16 -50 -17 -56 -14 -52 -74
-142 -132 -198 -26 -26 -51 -47 -55 -47 -4 0 -14 -6 -21 -13 -13 -13 -114 -59
-157 -72 -57 -17 -181 -24 -239 -14 -87 15 -182 54 -228 92 -99 81 -163 175
-203 298 -22 68 -29 180 -15 256 18 104 100 236 191 307 45 36 151 98 173 102
3 0 12 3 20 7 70 29 215 28 311 -2z m3111 -269 c15 -6 39 -21 53 -34 133 -115
49 -343 -126 -341 -136 2 -226 130 -182 260 34 100 154 154 255 115z"/>
</g>
</svg>
